# AST/ASF file generated using VICON BodyLanguage
# -----------------------------------------------
:version 1.10
:name VICON
:units
  mass 1.0
  length 0.45
  angle deg
:documentation
   .ast/.asf automatically generated from VICON data using
   VICON BodyBuilder and BodyLanguage model FoxedUp or BRILLIANT.MOD
:root
   order TX TY TZ RX RY RZ
   axis XYZ
   position 0 0 0  
   orientation 0 0 0 
:bonedata
  begin
     id 1 
     name lhipjoint
     direction 0.707368 -0.647095 0.284426 
     length 2.60678 
     axis 0 0 0  XYZ
  end
  begin
     id 2 
     name lfemur
     direction 0.34202 -0.939693 0  
     length 6.63812  
     axis 0 0 20  XYZ
    dof rx ry rz
    limits (-160.0 20.0)
           (-70.0 70.0)
           (-60.0 70.0)
  end
  begin
     id 3 
     name ltibia
     direction 0.34202 -0.939693 0   
     length 7.51178   
     axis 0 0 20   XYZ
    dof rx
    limits (-10.0 170.0)
  end
  begin
     id 4 
     name lfoot
     direction 0.121251 -0.333133 0.935051   
     length 1.83716   
     axis -90 7.62852e-016 20   XYZ
    dof rx rz
    limits (-45.0 90.0)
           (-70.0 20.0)
  end
  begin
     id 5 
     name ltoes
     direction 1.53611e-011 -4.21962e-011 1   
     length 0.916133   
     axis -90 7.62852e-016 20   XYZ
    dof rx
    limits (-90.0 20.0)
  end
  begin
     id 6 
     name rhipjoint
     direction -0.692419 -0.660507 0.290321   
     length 2.55385  
     axis 0 0 0  XYZ 
  end
  begin
     id 7 
     name rfemur
     direction -0.34202 -0.939693 0   
     length 7.29079   
     axis 0 0 -20   XYZ
    dof rx ry rz
    limits (-160.0 20.0)
           (-70.0 70.0)
           (-70.0 60.0)
  end
  begin
     id 8 
     name rtibia
     direction -0.34202 -0.939693 0   
     length 7.47143   
     axis 0 0 -20   XYZ
    dof rx
    limits (-10.0 170.0)
 end
 begin
     id 9 
     name rfoot
     direction -0.119907 -0.329441 0.936532   
     length 1.79439  
     axis -90 -7.62852e-016 -20   XYZ
    dof rx rz
    limits (-45.0 90.0)
           (-20.0 70.0)
  end
  begin
     id 10 
     name rtoes
     direction -1.53571e-011 -4.21961e-011 1   
     length 0.896039   
     axis -90 -7.62852e-016 -20   XYZ
    dof rx
    limits (-90.0 20.0)
  end
  begin
     id 11 
     name lowerback
     direction 0.0367721 0.992912 -0.113016   
     length 1.73542   
     axis 0 0 0   XYZ
    dof rx ry rz
    limits (-20.0 45.0)
           (-30.0 30.0)
           (-30.0 30.0)
  end
  begin
     id 12 
     name upperback
     direction -0.000314626 0.990678 0.136227   
     length 1.7514   
     axis 0 0 0   XYZ
    dof rx ry rz
    limits (-20.0 45.0)
           (-30.0 30.0)
           (-30.0 30.0)
  end
  begin
     id 13 
     name thorax
     direction -0.0226159 0.981151 0.191917   
     length 1.71471   
     axis 0 0 0   XYZ
    dof rx ry rz
    limits (-20.0 45.0)
           (-30.0 30.0)
           (-30.0 30.0)
  end
  begin
     id 14 
     name lowerneck
     direction 0.0219333 0.998071 0.0580739   
     length 1.65882   
     axis 0 0 0   XYZ
    dof rx ry rz
    limits (-20.0 45.0)
           (-30.0 30.0)
           (-30.0 30.0)
  end
  begin
     id 15 
     name upperneck
     direction 0.0384529 0.980058 -0.194957   
     length 1.6612   
     axis 0 0 0   XYZ
    dof rx ry rz
    limits (-20.0 45.0)
           (-30.0 30.0)
           (-30.0 30.0)
  end
  begin
     id 16
     name head
     direction 0.00592123 0.997421 -0.0715234  
     length 1.68077  
     axis 0 0 0   XYZ
    dof rx ry rz
    limits (-20.0 45.0)
           (-30.0 30.0)
           (-30.0 30.0)
  end
  begin
     id 17 
     name lclavicle
     direction 0.904803 0.417826 0.0821728  
     length 3.42227  
     axis 0 0 0   XYZ
    dof ry rz
    limits (-20.0 10.0)
           (0.0 20.0)
  end
  begin
     id 18 
     name lhumerus
     direction 1 -4.48965e-011 -2.68786e-027   
     length 5.11878   
     axis -180 -30 -90   XYZ
    dof rx ry rz
    limits (-60.0 90.0)
           (-90.0 90.0)
           (-90.0 90.0)
  end
  begin
     id 19
     name lradius
     direction 1 -4.48965e-011 2.61168e-028   
     length 3.59971   
     axis -180 -30 -90   XYZ
    dof rx
    limits (-10.0 170.0)
  end
  begin
     id 20
     name lwrist
     direction 1 -4.48965e-011 1.58672e-027   
     length 1.79985   
     axis -1.65735e-015 90 90   XYZ
    dof ry
    limits (-180.0 0.0)
 end
  begin
     id 21 
     name lhand
     direction 1 -4.48942e-011 3.17344e-027   
     length 0.62877   
     axis -2.02492e-015 90 90   XYZ
    dof rx rz
    limits (-90.0 90.0)
           (-45.0 45.0)
  end
  begin
     id 22 
     name lfingers
     direction 1 -4.49011e-011 6.34687e-027   
     length 0.506931   
     axis -4.04985e-015 90 90   XYZ
    dof rx
    limits (0.0 90.0)
  end
  begin
     id 23
     name lthumb
     direction 0.707107 -6.34982e-011 0.707107   
     length 0.727854   
     axis -90 45 2.85299e-015   XYZ
    dof rx rz
    limits (-45.0 45.0)
           (-45.0 45.0)
  end
  begin
     id 24 
     name rclavicle
     direction -0.945647 0.32488 0.0143075   
     length 3.52737  
     axis 0 0 0   XYZ 
    dof ry rz
    limits (-10.0 20.0)
           (-20.0 0.0)
  end
  begin
     id 25 
     name rhumerus
     direction -1 -4.48962e-011 1.92182e-027  
     length 5.4902   
     axis -180 30 90   XYZ
    dof rx ry rz
    limits (-90.0 60.0)
           (-90.0 90.0)
           (-90.0 90.0)
  end
  begin
     id 26 
     name rradius
     direction -1 -4.48967e-011 -5.97193e-028   
     length 3.20659   
     axis -180 30 90   XYZ
    dof rx
    limits (-10.0 170.0)
  end
  begin
     id 27 
     name rwrist
     direction -1 -4.48964e-011 1.58672e-027   
     length 1.6033   
     axis -1.65735e-015 -90 -90   XYZ
    dof ry
    limits (-180.0 0.0)
  end
  begin
     id 28
     name rhand
     direction -1 -4.49006e-011 3.17344e-027   
     length 0.691885   
     axis -2.02492e-015 -90 -90   XYZ
    dof rx rz
    limits (-90.0 90.0)
           (-45.0 45.0)
  end
  begin
     id 29
     name rfingers
     direction -1 -4.48908e-011 6.34687e-027   
     length 0.557815   
     axis -4.04985e-015 -90 -90   XYZ
    dof rx
    limits (0.0 90.0)
  end
  begin
     id 30
     name rthumb
     direction -0.707107 -6.34999e-011 0.707107   
     length 0.800915   
     axis -90 -45 -2.85299e-015   XYZ
    dof rx rz
    limits (-45.0 45.0)
           (-45.0 45.0)
  end
:hierarchy
  begin
    root lhipjoint rhipjoint lowerback
    lhipjoint lfemur
    lfemur ltibia
    ltibia lfoot
    lfoot ltoes
    rhipjoint rfemur
    rfemur rtibia
    rtibia rfoot
    rfoot rtoes
    lowerback upperback
    upperback thorax
    thorax lowerneck lclavicle rclavicle
    lowerneck upperneck
    upperneck head
    lclavicle lhumerus
    lhumerus lradius
    lradius lwrist
    lwrist lhand lthumb
    lhand lfingers
    rclavicle rhumerus
    rhumerus rradius
    rradius rwrist
    rwrist rhand rthumb
    rhand rfingers
  end

#!OML:ASF I:\Actors\actors\Patient Classification 1\Patient 1\Session 1\Subject1.ASF
:FULLY-SPECIFIED
:DEGREES
143
root -0.442714 17.4939 8.13257 8.03224 -3.46705 -5.27104
lowerback 0.40396 -0.0856302 1.7849
upperback -9.65112 0.0900974 1.28743
thorax -10.4685 -0.04711 0.371094
lowerneck -7.45696 -6.84929 -5.48855
upperneck 26.0607 -10.7919 7.17932
head 10.2122 -4.82928 2.22705
rclavicle -3.926e-015 1.59028e-015
rhumerus -43.835 -6.19278 -82.5892
rradius 26.5726
rwrist 33.3116
rhand 17.9621 -32.77
rfingers 7.12502
rthumb 42.6321 -57.1446
lclavicle -3.926e-015 1.59028e-015
lhumerus -44.4978 -3.53365 92.4161
lradius 25.2898
lwrist -19.2706
lhand -9.97419 -1.62869
lfingers 7.12502
lthumb 16.0085 27.7299
rfemur -2.43149 25.603 22.014
rtibia 1.7738
rfoot -10.6588 -21.8423
rtoes 1.01539
lfemur 7.69118 -41.9494 -18.7676
ltibia -4.42253
lfoot -21.4364 52.4365
ltoes 13.1822
144
root -0.445129 17.4942 8.1319 7.98272 -3.45277 -5.31499
lowerback 0.458091 -0.0957923 1.90676
upperback -9.61894 0.0834735 1.27195
thorax -10.4652 -0.0616604 0.287089
lowerneck -8.04207 -6.291 -4.75786
upperneck 26.8526 -10.0249 6.65872
head 10.487 -4.4258 2.00068
rclavicle -2.58917e-014 1.23246e-014
rhumerus -44.045 -2.83634 -84.7562
rradius 27.6741
rwrist 31.4665
rhand 19.52 -33.5552
rfingers 7.12502
rthumb 44.0877 -57.4054
lclavicle -2.58917e-014 1.23246e-014
lhumerus -45.4258 -7.98173 95.5696
lradius 26.674
lwrist -16.2397
lhand -9.38132 -1.98253
lfingers 7.12502
lthumb 16.5794 27.3293
rfemur -2.3954 25.5762 22.1047
rtibia 1.81655
rfoot -10.6652 -21.8239
rtoes 0.962969
lfemur 7.67406 -41.6577 -18.6475
ltibia -4.44599
lfoot -21.4786 52.1662
ltoes 13.3009
145
root -0.447886 17.4942 8.12814 7.93338 -3.37412 -5.35241
lowerback 0.57547 -0.139667 1.9971
upperback -9.59664 0.0315878 1.25584
thorax -10.5117 -0.0958797 0.224779
lowerneck -8.48858 -5.63109 -3.98129
upperneck 27.5261 -9.15778 6.2896
head 10.705 -3.96237 1.83789
rclavicle 1.33186e-014 -2.10712e-014
rhumerus -44.6184 1.06521 -87.159
rradius 29.3318
rwrist 29.2121
rhand 21.0705 -34.4254
rfingers 7.12502
rthumb 45.531 -57.7127
lclavicle 1.33186e-014 -2.10712e-014
lhumerus -46.8681 -12.7702 99.0378
lradius 28.7217
lwrist -12.9569
lhand -9.38608 -1.84083
lfingers 7.12502
lthumb 16.5748 27.4713
rfemur -2.35124 25.5313 22.2025
rtibia 1.86235
rfoot -10.699 -21.8473
rtoes 1.13394
lfemur 7.57834 -41.319 -18.4876
ltibia -4.42176
lfoot -21.2341 51.8316
ltoes 13.1396
146
root -0.449679 17.4945 8.12293 7.85328 -3.25067 -5.33453
lowerback 0.733944 -0.20445 2.0023
upperback -9.54014 -0.0525862 1.24592
thorax -10.5442 -0.137841 0.219716
lowerneck -8.80718 -5.01702 -3.57314
upperneck 27.994 -8.37246 6.27111
head 10.8737 -3.54264 1.85636
rclavicle -3.47873e-015 3.18055e-015
rhumerus -45.622 5.31105 -89.6125
rradius 31.7483
rwrist 26.5645
rhand 22.6816 -35.5102
rfingers 7.12502
rthumb 47.0245 -58.1657
lclavicle -3.47873e-015 3.18055e-015
lhumerus -48.8941 -17.5925 102.729
lradius 31.5315
lwrist -9.35957
lhand -9.53695 -1.3095
lfingers 7.12502
lthumb 16.4295 28.0148
rfemur -2.27614 25.4793 22.2482
rtibia 1.92936
rfoot -10.7662 -21.898
rtoes 1.31358
lfemur 7.54618 -41.1712 -18.4745
ltibia -4.35985
lfoot -20.9222 51.6373
ltoes 12.8535
147
root -0.449125 17.4945 8.12052 7.71062 -3.13005 -5.23115
lowerback 0.906399 -0.27261 1.9301
upperback -9.41878 -0.148664 1.21915
thorax -10.5109 -0.179143 0.240518
lowerneck -9.26124 -4.4053 -3.23218
upperneck 28.7151 -7.64554 6.41337
head 11.1866 -3.1299 1.9388
rclavicle -1.83876e-015 1.63003e-014
rhumerus -47.0841 9.58766 -91.9358
rradius 35.0535
rwrist 23.589
rhand 24.4098 -36.9475
rfingers 7.12502
rthumb 48.6188 -58.8663
lclavicle -1.83876e-015 1.63003e-014
lhumerus -51.4123 -22.1815 106.462
lradius 35.0488
lwrist -5.28365
lhand -9.90033 -0.824981
lfingers 7.12502
lthumb 16.0796 28.5279
rfemur -2.11757 25.3785 22.1983
rtibia 1.95559
rfoot -10.7916 -21.9342
rtoes 1.20389
lfemur 7.7355 -41.3407 -18.7562
ltibia -4.31948
lfoot -20.9355 51.7021
ltoes 12.7813
